<?xml version="1.0" encoding="UTF-8"?>
<!DOCTYPE svg PUBLIC "-//W3C//DTD SVG 1.1//EN" "http://www.w3.org/Graphics/SVG/1.1/DTD/svg11.dtd">
<svg xmlns="http://www.w3.org/2000/svg" version="1.1" width="21px" height="21px" style="shape-rendering:geometricPrecision; text-rendering:geometricPrecision; image-rendering:optimizeQuality; fill-rule:evenodd; clip-rule:evenodd" xmlns:xlink="http://www.w3.org/1999/xlink">
<g><path style="opacity:0.322" fill="#892f1a" d="M 7.5,1.5 C 8.83333,1.5 10.1667,1.5 11.5,1.5C 11.7373,2.79105 11.404,3.79105 10.5,4.5C 10.2893,2.57591 9.6226,2.24258 8.5,3.5C 7.66175,3.15829 7.32842,2.49162 7.5,1.5 Z"/></g>
<g><path style="opacity:0.055" fill="#191d1f" d="M 5.5,2.5 C 5.84171,1.66175 6.50838,1.32842 7.5,1.5C 7.32842,2.49162 7.66175,3.15829 8.5,3.5C 8.16667,4.16667 7.83333,4.83333 7.5,5.5C 7.16667,5.5 6.83333,5.5 6.5,5.5C 6.73731,4.20895 6.40397,3.20895 5.5,2.5 Z"/></g>
<g><path style="opacity:0.067" fill="#4b5252" d="M 14.5,2.5 C 13.8333,2.5 13.5,2.83333 13.5,3.5C 13.5,4.16667 13.1667,4.5 12.5,4.5C 12.5,3.5 12.5,2.5 12.5,1.5C 13.9245,-0.0310516 14.5912,0.302282 14.5,2.5 Z"/></g>
<g><path style="opacity:0.016" fill="#121111" d="M 4.5,2.5 C 4.5,3.16667 4.5,3.83333 4.5,4.5C 2.06732,3.45227 2.06732,2.7856 4.5,2.5 Z"/></g>
<g><path style="opacity:0.173" fill="#c7cbc5" d="M 4.5,2.5 C 4.83333,2.5 5.16667,2.5 5.5,2.5C 6.40397,3.20895 6.73731,4.20895 6.5,5.5C 5.83333,5.5 5.16667,5.5 4.5,5.5C 4.5,5.16667 4.5,4.83333 4.5,4.5C 4.5,3.83333 4.5,3.16667 4.5,2.5 Z"/></g>
<g><path style="opacity:0.439" fill="#271715" d="M 11.5,1.5 C 11.8333,1.5 12.1667,1.5 12.5,1.5C 12.5,2.5 12.5,3.5 12.5,4.5C 12.5,4.83333 12.5,5.16667 12.5,5.5C 11.8333,5.83333 11.1667,6.16667 10.5,6.5C 10.5,5.83333 10.5,5.16667 10.5,4.5C 11.404,3.79105 11.7373,2.79105 11.5,1.5 Z"/></g>
<g><path style="opacity:1" fill="#db5326" d="M 10.5,4.5 C 10.5,5.16667 10.5,5.83333 10.5,6.5C 9.83333,6.5 9.5,6.83333 9.5,7.5C 8.83333,7.5 8.16667,7.5 7.5,7.5C 7.5,6.83333 7.5,6.16667 7.5,5.5C 7.83333,4.83333 8.16667,4.16667 8.5,3.5C 9.6226,2.24258 10.2893,2.57591 10.5,4.5 Z"/></g>
<g><path style="opacity:0.633" fill="#7f2b20" d="M 16.5,4.5 C 15.8333,4.5 15.5,4.83333 15.5,5.5C 14.391,5.55688 13.391,5.89022 12.5,6.5C 12.5,6.16667 12.5,5.83333 12.5,5.5C 12.5,5.16667 12.5,4.83333 12.5,4.5C 13.1667,4.5 13.5,4.16667 13.5,3.5C 14.1667,3.5 14.5,3.16667 14.5,2.5C 16.2027,1.33985 16.8693,2.00651 16.5,4.5 Z"/></g>
<g><path style="opacity:0.02" fill="#3f2524" d="M 16.5,4.5 C 17.3382,4.84171 17.6716,5.50838 17.5,6.5C 16.8333,6.83333 16.1667,7.16667 15.5,7.5C 15.1667,7.5 14.8333,7.5 14.5,7.5C 14.8333,6.83333 15.1667,6.16667 15.5,5.5C 15.5,4.83333 15.8333,4.5 16.5,4.5 Z"/></g>
<g><path style="opacity:0.098" fill="#4d4b4a" d="M 4.5,5.5 C 5.16667,5.5 5.83333,5.5 6.5,5.5C 6.5,6.16667 6.16667,6.5 5.5,6.5C 4.60895,7.10978 3.60895,7.44312 2.5,7.5C 2.5,6.16667 3.16667,5.5 4.5,5.5 Z"/></g>
<g><path style="opacity:0.29" fill="#7a807f" d="M 6.5,5.5 C 6.83333,5.5 7.16667,5.5 7.5,5.5C 7.5,6.16667 7.5,6.83333 7.5,7.5C 7.16667,7.5 6.83333,7.5 6.5,7.5C 5.83333,7.5 5.5,7.16667 5.5,6.5C 6.16667,6.5 6.5,6.16667 6.5,5.5 Z"/></g>
<g><path style="opacity:0.761" fill="#b2a59e" d="M 12.5,5.5 C 12.5,5.83333 12.5,6.16667 12.5,6.5C 12.5,7.16667 12.5,7.83333 12.5,8.5C 11.8333,8.5 11.5,8.83333 11.5,9.5C 10.596,8.79105 10.2627,7.79105 10.5,6.5C 11.1667,6.16667 11.8333,5.83333 12.5,5.5 Z"/></g>
<g><path style="opacity:0.702" fill="#b63929" d="M 15.5,5.5 C 15.1667,6.16667 14.8333,6.83333 14.5,7.5C 13.8333,7.5 13.5,7.83333 13.5,8.5C 13.1667,8.5 12.8333,8.5 12.5,8.5C 12.5,7.83333 12.5,7.16667 12.5,6.5C 13.391,5.89022 14.391,5.55688 15.5,5.5 Z"/></g>
<g><path style="opacity:0.424" fill="#a7a8a2" d="M 5.5,6.5 C 5.5,7.16667 5.83333,7.5 6.5,7.5C 5.5,8.16667 4.5,8.83333 3.5,9.5C 3.16667,9.5 2.83333,9.5 2.5,9.5C 2.5,8.83333 2.5,8.16667 2.5,7.5C 3.60895,7.44312 4.60895,7.10978 5.5,6.5 Z"/></g>
<g><path style="opacity:0.02" fill="#393b39" d="M 17.5,6.5 C 17.5,7.83333 17.5,9.16667 17.5,10.5C 16.8333,10.1667 16.1667,9.83333 15.5,9.5C 15.5,8.83333 15.5,8.16667 15.5,7.5C 16.1667,7.16667 16.8333,6.83333 17.5,6.5 Z"/></g>
<g><path style="opacity:0.502" fill="#753026" d="M 6.5,7.5 C 6.83333,7.5 7.16667,7.5 7.5,7.5C 7.5,8.16667 7.5,8.83333 7.5,9.5C 6.5,9.5 5.5,9.5 4.5,9.5C 4.16667,9.5 3.83333,9.5 3.5,9.5C 4.5,8.83333 5.5,8.16667 6.5,7.5 Z"/></g>
<g><path style="opacity:1" fill="#d4381f" d="M 7.5,7.5 C 8.16667,7.5 8.83333,7.5 9.5,7.5C 9.5,8.16667 9.5,8.83333 9.5,9.5C 9.16667,9.5 8.83333,9.5 8.5,9.5C 8.16667,9.5 7.83333,9.5 7.5,9.5C 7.5,8.83333 7.5,8.16667 7.5,7.5 Z"/></g>
<g><path style="opacity:0.725" fill="#72746e" d="M 13.5,8.5 C 13.5,7.83333 13.8333,7.5 14.5,7.5C 14.8333,7.5 15.1667,7.5 15.5,7.5C 15.5,8.16667 15.5,8.83333 15.5,9.5C 15.5,9.83333 15.5,10.1667 15.5,10.5C 15.1667,10.5 14.8333,10.5 14.5,10.5C 14.6716,9.50838 14.3382,8.84171 13.5,8.5 Z"/></g>
<g><path style="opacity:0.769" fill="#88281e" d="M 4.5,9.5 C 5.5,9.5 6.5,9.5 7.5,9.5C 6.83333,10.8333 6.16667,12.1667 5.5,13.5C 5.5,13.8333 5.5,14.1667 5.5,14.5C 5.16667,14.5 4.83333,14.5 4.5,14.5C 4.5,13.8333 4.5,13.1667 4.5,12.5C 4.5,11.8333 4.5,11.1667 4.5,10.5C 4.5,10.1667 4.5,9.83333 4.5,9.5 Z"/></g>
<g><path style="opacity:1" fill="#7c645d" d="M 12.5,8.5 C 12.8333,8.5 13.1667,8.5 13.5,8.5C 13.1667,9.16667 12.8333,9.83333 12.5,10.5C 11.8333,10.5 11.5,10.1667 11.5,9.5C 11.5,8.83333 11.8333,8.5 12.5,8.5 Z"/></g>
<g><path style="opacity:1" fill="#87908b" d="M 13.5,8.5 C 14.3382,8.84171 14.6716,9.50838 14.5,10.5C 13.8333,10.5 13.1667,10.5 12.5,10.5C 12.8333,9.83333 13.1667,9.16667 13.5,8.5 Z"/></g>
<g><path style="opacity:0.004" fill="#8a8685" d="M 2.5,9.5 C 2.83333,9.5 3.16667,9.5 3.5,9.5C 3.83333,9.5 4.16667,9.5 4.5,9.5C 4.5,9.83333 4.5,10.1667 4.5,10.5C 3.83333,10.8333 3.16667,11.1667 2.5,11.5C 1.16667,10.8333 1.16667,10.1667 2.5,9.5 Z"/></g>
<g><path style="opacity:0.976" fill="#544842" d="M 10.5,6.5 C 10.2627,7.79105 10.596,8.79105 11.5,9.5C 11.5,10.1667 11.8333,10.5 12.5,10.5C 12.5,10.8333 12.5,11.1667 12.5,11.5C 11.8333,11.5 11.5,11.8333 11.5,12.5C 9.95186,12.1788 9.28519,11.1788 9.5,9.5C 9.5,8.83333 9.5,8.16667 9.5,7.5C 9.5,6.83333 9.83333,6.5 10.5,6.5 Z"/></g>
<g><path style="opacity:0.161" fill="#dcdfdc" d="M 4.5,10.5 C 4.5,11.1667 4.5,11.8333 4.5,12.5C 3.83333,12.8333 3.16667,13.1667 2.5,13.5C 2.5,12.8333 2.5,12.1667 2.5,11.5C 3.16667,11.1667 3.83333,10.8333 4.5,10.5 Z"/></g>
<g><path style="opacity:1" fill="#d73423" d="M 7.5,9.5 C 7.83333,9.5 8.16667,9.5 8.5,9.5C 8.5,10.1667 8.5,10.8333 8.5,11.5C 7.77765,12.5511 6.77765,13.2178 5.5,13.5C 6.16667,12.1667 6.83333,10.8333 7.5,9.5 Z"/></g>
<g><path style="opacity:0.965" fill="#5e2e24" d="M 8.5,9.5 C 8.83333,9.5 9.16667,9.5 9.5,9.5C 9.28519,11.1788 9.95186,12.1788 11.5,12.5C 10.791,13.404 9.79105,13.7373 8.5,13.5C 8.5,12.8333 8.5,12.1667 8.5,11.5C 8.5,10.8333 8.5,10.1667 8.5,9.5 Z"/></g>
<g><path style="opacity:0.859" fill="#833826" d="M 12.5,11.5 C 12.5,11.1667 12.5,10.8333 12.5,10.5C 13.1667,10.5 13.8333,10.5 14.5,10.5C 14.6716,11.4916 14.3382,12.1583 13.5,12.5C 13.5,11.8333 13.1667,11.5 12.5,11.5 Z"/></g>
<g><path style="opacity:0.208" fill="#b8b5b0" d="M 15.5,9.5 C 16.1667,9.83333 16.8333,10.1667 17.5,10.5C 17.5639,11.3652 17.8973,12.3652 18.5,13.5C 17.8333,13.5 17.1667,13.5 16.5,13.5C 16.1667,13.5 15.8333,13.5 15.5,13.5C 15.5,12.5 15.5,11.5 15.5,10.5C 15.5,10.1667 15.5,9.83333 15.5,9.5 Z"/></g>
<g><path style="opacity:1" fill="#cf4324" d="M 12.5,11.5 C 13.1667,11.5 13.5,11.8333 13.5,12.5C 13.0679,13.7095 12.4013,14.7095 11.5,15.5C 10.8333,15.5 10.1667,15.5 9.5,15.5C 9.5,14.8333 9.16667,14.5 8.5,14.5C 8.5,14.1667 8.5,13.8333 8.5,13.5C 9.79105,13.7373 10.791,13.404 11.5,12.5C 11.5,11.8333 11.8333,11.5 12.5,11.5 Z"/></g>
<g><path style="opacity:0.455" fill="#653b33" d="M 14.5,10.5 C 14.8333,10.5 15.1667,10.5 15.5,10.5C 15.5,11.5 15.5,12.5 15.5,13.5C 14.8333,14.1667 14.1667,14.8333 13.5,15.5C 13.5,15.8333 13.5,16.1667 13.5,16.5C 12.5084,16.6716 11.8417,16.3382 11.5,15.5C 12.4013,14.7095 13.0679,13.7095 13.5,12.5C 14.3382,12.1583 14.6716,11.4916 14.5,10.5 Z"/></g>
<g><path style="opacity:0.467" fill="#3c3633" d="M 4.5,12.5 C 4.5,13.1667 4.5,13.8333 4.5,14.5C 3.83333,14.5 3.16667,14.5 2.5,14.5C 2.5,14.1667 2.5,13.8333 2.5,13.5C 3.16667,13.1667 3.83333,12.8333 4.5,12.5 Z"/></g>
<g><path style="opacity:1" fill="#ac2c1e" d="M 8.5,11.5 C 8.5,12.1667 8.5,12.8333 8.5,13.5C 8.5,13.8333 8.5,14.1667 8.5,14.5C 7.5,14.5 6.5,14.5 5.5,14.5C 5.5,14.1667 5.5,13.8333 5.5,13.5C 6.77765,13.2178 7.77765,12.5511 8.5,11.5 Z"/></g>
<g><path style="opacity:0.369" fill="#70716b" d="M 15.5,13.5 C 15.8333,13.5 16.1667,13.5 16.5,13.5C 16.5,14.1667 16.5,14.8333 16.5,15.5C 16.1667,15.5 15.8333,15.5 15.5,15.5C 14.8333,15.5 14.1667,15.5 13.5,15.5C 14.1667,14.8333 14.8333,14.1667 15.5,13.5 Z"/></g>
<g><path style="opacity:0.149" fill="#d4d6d2" d="M 16.5,13.5 C 17.1667,13.5 17.8333,13.5 18.5,13.5C 18.6716,14.4916 18.3382,15.1583 17.5,15.5C 17.1667,15.5 16.8333,15.5 16.5,15.5C 16.5,14.8333 16.5,14.1667 16.5,13.5 Z"/></g>
<g><path style="opacity:0.529" fill="#94948b" d="M 2.5,14.5 C 3.16667,14.5 3.83333,14.5 4.5,14.5C 4.83333,14.5 5.16667,14.5 5.5,14.5C 5.5,14.8333 5.5,15.1667 5.5,15.5C 5.67158,16.4916 5.33825,17.1583 4.5,17.5C 2.95186,17.1788 2.28519,16.1788 2.5,14.5 Z"/></g>
<g><path style="opacity:0.827" fill="#b6b1a0" d="M 5.5,15.5 C 7.02694,15.427 8.02694,16.0937 8.5,17.5C 8.5,17.8333 8.5,18.1667 8.5,18.5C 7.16667,18.5 5.83333,18.5 4.5,18.5C 4.5,18.1667 4.5,17.8333 4.5,17.5C 5.33825,17.1583 5.67158,16.4916 5.5,15.5 Z"/></g>
<g><path style="opacity:0.882" fill="#5f4e46" d="M 5.5,15.5 C 5.5,15.1667 5.5,14.8333 5.5,14.5C 6.5,14.5 7.5,14.5 8.5,14.5C 9.16667,14.5 9.5,14.8333 9.5,15.5C 9.67158,16.4916 9.33825,17.1583 8.5,17.5C 8.02694,16.0937 7.02694,15.427 5.5,15.5 Z"/></g>
<g><path style="opacity:0.788" fill="#6a6b64" d="M 9.5,15.5 C 10.1667,15.5 10.8333,15.5 11.5,15.5C 11.8417,16.3382 12.5084,16.6716 13.5,16.5C 13.5,16.8333 13.5,17.1667 13.5,17.5C 11.7839,17.6287 10.1172,17.962 8.5,18.5C 8.5,18.1667 8.5,17.8333 8.5,17.5C 9.33825,17.1583 9.67158,16.4916 9.5,15.5 Z"/></g>
<g><path style="opacity:0.494" fill="#90938b" d="M 13.5,15.5 C 14.1667,15.5 14.8333,15.5 15.5,15.5C 15.5,16.1667 15.5,16.8333 15.5,17.5C 15.1583,18.3382 14.4916,18.6716 13.5,18.5C 13.5,18.1667 13.5,17.8333 13.5,17.5C 13.5,17.1667 13.5,16.8333 13.5,16.5C 13.5,16.1667 13.5,15.8333 13.5,15.5 Z"/></g>
<g><path style="opacity:0.122" fill="#e3e7e0" d="M 15.5,15.5 C 15.8333,15.5 16.1667,15.5 16.5,15.5C 16.8333,15.5 17.1667,15.5 17.5,15.5C 17.6716,16.4916 17.3382,17.1583 16.5,17.5C 16.1667,17.5 15.8333,17.5 15.5,17.5C 15.5,16.8333 15.5,16.1667 15.5,15.5 Z"/></g>
<g><path style="opacity:0.051" fill="#ced1ca" d="M 13.5,17.5 C 13.5,17.8333 13.5,18.1667 13.5,18.5C 10.3962,19.7752 7.39625,19.7752 4.5,18.5C 5.83333,18.5 7.16667,18.5 8.5,18.5C 10.1172,17.962 11.7839,17.6287 13.5,17.5 Z"/></g>
<g><path style="opacity:0.008" fill="#edeeec" d="M 15.5,17.5 C 15.8333,17.5 16.1667,17.5 16.5,17.5C 15.9473,19.5518 14.9473,19.8852 13.5,18.5C 14.4916,18.6716 15.1583,18.3382 15.5,17.5 Z"/></g>
</svg>
